<?xml version="1.0" encoding="utf-8"?>
<!-- Generator: Adobe Illustrator 24.1.0, SVG Export Plug-In . SVG Version: 6.00 Build 0)  -->
<svg version="1.1" id="圖層_1" xmlns="http://www.w3.org/2000/svg" xmlns:xlink="http://www.w3.org/1999/xlink" x="0px" y="0px"
	 viewBox="0 0 28.4 28.4" style="enable-background:new 0 0 28.4 28.4;" xml:space="preserve">
<style type="text/css">
	.st0{fill-rule:evenodd;clip-rule:evenodd;}
</style>
<path class="st0" d="M14.2,0.9C6.8,0.9,0.9,6.8,0.9,14.2s5.9,13.3,13.3,13.3c7.3,0,13.3-5.9,13.3-13.3S21.5,0.9,14.2,0.9L14.2,0.9z
	 M23.7,19.1c-0.9,1.7-2.2,3.1-3.8,4.1l0,0c0.6-1.2,1.2-2.6,1.5-4.1H23.7L23.7,19.1z M18.9,19.1c-0.3,1.1-0.7,2.1-1.2,2.9
	c-0.7,1.2-1.5,2.1-2.4,2.6v-5.5H18.9L18.9,19.1z M12.9,19.1v5.5c-0.9-0.4-1.7-1.3-2.4-2.6c-0.5-0.8-0.9-1.8-1.2-2.9L12.9,19.1
	L12.9,19.1z M6.9,19.1c0.4,1.5,0.9,2.9,1.5,4.1l0,0c-1.6-1-2.9-2.4-3.8-4.1H6.9L6.9,19.1z M3.7,16.7c-0.2-0.8-0.3-1.6-0.3-2.5
	c0-0.9,0.1-1.7,0.3-2.5h2.8c-0.1,0.8-0.1,1.6-0.1,2.5c0,0.9,0,1.7,0.1,2.5H3.7L3.7,16.7z M8.9,16.7c-0.1-0.8-0.2-1.6-0.2-2.5
	c0-0.9,0.1-1.7,0.2-2.5h4v5L8.9,16.7L8.9,16.7z M15.4,16.7v-5h4c0.1,0.8,0.1,1.6,0.1,2.5c0,0.9-0.1,1.7-0.1,2.5H15.4L15.4,16.7z
	 M21.9,16.7c0.1-0.8,0.1-1.6,0.1-2.5c0-0.8,0-1.7-0.1-2.5h2.7c0.2,0.8,0.3,1.6,0.3,2.5c0,0.9-0.1,1.7-0.3,2.5H21.9L21.9,16.7z
	 M4.6,9.2c0.9-1.7,2.2-3.1,3.8-4.1l0,0C7.7,6.3,7.2,7.7,6.9,9.2H4.6L4.6,9.2z M9.4,9.2c0.3-1.1,0.7-2.1,1.2-2.9
	c0.7-1.2,1.5-2.1,2.4-2.6v5.5H9.4L9.4,9.2z M15.4,9.2V3.7c0.9,0.4,1.7,1.3,2.4,2.6c0.5,0.8,0.9,1.8,1.2,2.9L15.4,9.2L15.4,9.2z
	 M21.5,9.2c-0.4-1.5-0.9-2.9-1.5-4.1l0,0c1.6,1,2.9,2.4,3.8,4.1L21.5,9.2L21.5,9.2z"/>
</svg>
