<?xml version="1.0" encoding="utf-8"?>
<!-- Generator: Adobe Illustrator 24.1.0, SVG Export Plug-In . SVG Version: 6.00 Build 0)  -->
<svg version="1.1" id="圖層_1" xmlns="http://www.w3.org/2000/svg" xmlns:xlink="http://www.w3.org/1999/xlink" x="0px" y="0px"
	 viewBox="0 0 28.4 28.4" style="enable-background:new 0 0 28.4 28.4;" xml:space="preserve">
<style type="text/css">
	.st0{fill-rule:evenodd;clip-rule:evenodd;}
</style>
<path class="st0" d="M11.3,4.2c-0.8,0.2-1.5,0.5-2.2,0.9L7.2,3.7C6.9,3.5,6.4,3.5,6.1,3.8L4.9,4.9L3.8,6.1C3.5,6.4,3.5,6.9,3.7,7.2
	l1.4,1.9c-0.4,0.7-0.7,1.5-0.9,2.2l-2.3,0.4c-0.4,0-0.7,0.4-0.7,0.8v1.6v1.6c0,0.4,0.3,0.8,0.7,0.8L4.2,17c0.2,0.8,0.5,1.5,0.9,2.2
	l-1.4,1.9c-0.3,0.3-0.2,0.8,0.1,1.1l1.2,1.2l1.2,1.2c0.3,0.3,0.8,0.3,1.1,0.1l1.9-1.4c0.7,0.4,1.5,0.7,2.3,0.9l0.4,2.3
	c0,0.4,0.4,0.7,0.8,0.7h1.6h1.6c0.4,0,0.8-0.3,0.8-0.7l0.4-2.3c0.8-0.2,1.5-0.5,2.2-0.9l1.9,1.4c0.3,0.3,0.8,0.2,1.1-0.1l1.2-1.2
	l1.2-1.2c0.3-0.3,0.3-0.8,0.1-1.1l-1.4-1.9c0.4-0.7,0.7-1.5,0.9-2.2l2.3-0.4c0.4,0,0.7-0.4,0.7-0.8v-1.6v-1.6c0-0.4-0.3-0.8-0.7-0.8
	l-2.3-0.4c-0.2-0.8-0.5-1.5-0.9-2.2l1.4-1.9c0.3-0.3,0.2-0.8-0.1-1.1l-1.2-1.2l-1.2-1.2c-0.3-0.3-0.8-0.3-1.1-0.1l-1.9,1.4
	c-0.7-0.4-1.5-0.7-2.2-0.9l-0.4-2.3c0-0.4-0.4-0.7-0.8-0.7h-1.6h-1.6c-0.4,0-0.8,0.3-0.8,0.7L11.3,4.2L11.3,4.2z M14.2,9.3
	c2.7,0,4.9,2.2,4.9,4.9c0,2.7-2.2,4.9-4.9,4.9s-4.9-2.2-4.9-4.9C9.3,11.5,11.5,9.3,14.2,9.3z"/>
</svg>
