<?xml version="1.0" encoding="utf-8"?>
<!-- Generator: Adobe Illustrator 24.2.1, SVG Export Plug-In . SVG Version: 6.00 Build 0)  -->
<svg version="1.1" id="圖層_1" xmlns="http://www.w3.org/2000/svg" xmlns:xlink="http://www.w3.org/1999/xlink" x="0px" y="0px"
	 viewBox="0 0 1366 144" style="enable-background:new 0 0 1366 144;" xml:space="preserve">
<style type="text/css">
	.st0{fill:#F4F4F4;}
	.st1{fill:#D1D1D1;}
	.st2{fill:#FFFFFF;}
	.st3{fill:#9E9E9E;}
	.st4{fill:#BCBCBC;}
	.st5{font-family:'Arial-BoldMT';}
	.st6{font-size:29.2086px;}
	.st7{fill:#939393;}
	.st8{font-size:66.581px;}
</style>
<g>
	<path class="st0" d="M6.5,143.5c-3.3,0-6-2.7-6-6V6.5c0-3.3,2.7-6,6-6h1352.9c3.3,0,6,2.7,6,6v130.9c0,3.3-2.7,6-6,6H6.5z"/>
	<path class="st1" d="M1359.5,1c3.1,0,5.5,2.5,5.5,5.5v130.9c0,3.1-2.5,5.5-5.5,5.5H6.5c-3.1,0-5.5-2.5-5.5-5.5V6.5
		C1,3.5,3.5,1,6.5,1H1359.5 M1359.5,0H6.5C2.9,0,0,2.9,0,6.5v130.9c0,3.6,2.9,6.5,6.5,6.5h1352.9c3.6,0,6.5-2.9,6.5-6.5V6.5
		C1366,2.9,1363.1,0,1359.5,0L1359.5,0z"/>
</g>
<g>
	<g>
		<rect x="21.2" y="20.5" class="st2" width="240" height="40"/>
		<path class="st3" d="M260.8,21v39h-239V21H260.8 M261.8,20h-241v41h241V20L261.8,20z"/>
	</g>
	<text transform="matrix(1 0 0 1 98.25 52.5312)" class="st4 st5 st6">LOGO</text>
</g>
<g>
	<rect x="20" y="87" class="st1" width="252.7" height="38"/>
</g>
<g>
	<rect x="288.6" y="87" class="st1" width="252.7" height="38"/>
</g>
<g>
	<rect x="557.2" y="86" class="st1" width="252.7" height="38"/>
</g>
<g>
	<rect x="824.8" y="86" class="st1" width="252.7" height="38"/>
</g>
<g>
	<rect x="1091.3" y="86" class="st1" width="252.7" height="38"/>
</g>
<g>
	<g>
		<rect x="1039.5" y="20.5" class="st2" width="304" height="40"/>
		<path class="st3" d="M1343,21v39h-303V21H1343 M1344,20h-305v41h305V20L1344,20z"/>
	</g>
	<g>
		<path class="st1" d="M1326.7,38.3c0-1.9-0.7-3.5-2-4.9s-3-2-4.9-2s-3.5,0.7-4.9,2c-1.3,1.3-2,3-2,4.9c0,1.9,0.7,3.5,2,4.9
			c1.3,1.3,3,2,4.9,2s3.5-0.7,4.9-2S1326.7,40.2,1326.7,38.3z M1334.5,51c0,0.5-0.2,1-0.6,1.4c-0.4,0.4-0.8,0.6-1.4,0.6
			c-0.6,0-1-0.2-1.4-0.6l-5.3-5.2c-1.8,1.3-3.9,1.9-6.1,1.9c-1.5,0-2.9-0.3-4.2-0.9c-1.3-0.6-2.5-1.3-3.4-2.3s-1.7-2.1-2.3-3.4
			s-0.9-2.7-0.9-4.2c0-1.5,0.3-2.9,0.9-4.2s1.3-2.5,2.3-3.4s2.1-1.7,3.4-2.3s2.7-0.9,4.2-0.9s2.9,0.3,4.2,0.9s2.5,1.3,3.4,2.3
			s1.7,2.1,2.3,3.4s0.9,2.7,0.9,4.2c0,2.2-0.6,4.3-1.9,6.1l5.3,5.3C1334.3,50,1334.5,50.5,1334.5,51z"/>
	</g>
</g>
<text transform="matrix(1 0 0 1 569 70.9351)" class="st7 st5 st8">Header</text>
</svg>
