<?xml version="1.0" encoding="utf-8"?>
<!-- Generator: Adobe Illustrator 24.2.1, SVG Export Plug-In . SVG Version: 6.00 Build 0)  -->
<svg version="1.1" id="圖層_1" xmlns="http://www.w3.org/2000/svg" xmlns:xlink="http://www.w3.org/1999/xlink" x="0px" y="0px"
	 viewBox="0 0 1366 144" style="enable-background:new 0 0 1366 144;" xml:space="preserve">
<style type="text/css">
	.st0{fill:#F4F4F4;}
	.st1{fill:#D1D1D1;}
	.st2{fill:#939393;}
	.st3{font-family:'Arial-BoldMT';}
	.st4{font-size:66.581px;}
</style>
<g>
	<path class="st0" d="M6.5,143.5c-3.3,0-6-2.7-6-6V6.5c0-3.3,2.7-6,6-6h1352.9c3.3,0,6,2.7,6,6v130.9c0,3.3-2.7,6-6,6H6.5z"/>
	<path class="st1" d="M1359.5,1c3.1,0,5.5,2.5,5.5,5.5v130.9c0,3.1-2.5,5.5-5.5,5.5H6.5c-3.1,0-5.5-2.5-5.5-5.5V6.5
		C1,3.5,3.5,1,6.5,1H1359.5 M1359.5,0H6.5C2.9,0,0,2.9,0,6.5v130.9c0,3.6,2.9,6.5,6.5,6.5h1352.9c3.6,0,6.5-2.9,6.5-6.5V6.5
		C1366,2.9,1363.1,0,1359.5,0L1359.5,0z"/>
</g>
<text transform="matrix(1 0 0 1 569 95.9351)" class="st2 st3 st4">Footer</text>
</svg>
