<?xml version="1.0" ?><svg id="Main" viewBox="0 0 24 24" xmlns="http://www.w3.org/2000/svg"><title/><path d="M2,13.5a1,1,0,0,0,1,1H8.44a3.24,3.24,0,0,0,.34.29A7,7,0,0,0,5,21a1,1,0,0,0,1,1H18a1,1,0,0,0,1-1,7,7,0,0,0-3.78-6.21,3.24,3.24,0,0,0,.34-.29H21a1,1,0,0,0,1-1,5.64,5.64,0,0,0-2.64-4.71A4,4,0,1,0,12.5,6v0A4,4,0,0,0,12,6a4,4,0,0,0-.5,0V6A4,4,0,1,0,4.64,8.79a5.32,5.32,0,0,0-1,.82A5.4,5.4,0,0,0,2,13.5ZM16.9,20H7.1a5,5,0,0,1,9.8,0Zm-.16-7.5A4.68,4.68,0,0,0,17,11a5.25,5.25,0,0,0-.1-1A3.34,3.34,0,0,1,19,11a3.47,3.47,0,0,1,.88,1.47ZM14.5,6a2,2,0,1,1,2,2,1.83,1.83,0,0,1-.61-.11,5.51,5.51,0,0,0-1.21-1.1A1.87,1.87,0,0,1,14.5,6Zm.5,5a3,3,0,1,1-3-3A3,3,0,0,1,15,11ZM7.5,4a2,2,0,0,1,2,2,1.87,1.87,0,0,1-.18.79,5.51,5.51,0,0,0-1.21,1.1A1.83,1.83,0,0,1,7.5,8a2,2,0,0,1,0-4ZM5,11A3.33,3.33,0,0,1,7.1,10,5.25,5.25,0,0,0,7,11a4.68,4.68,0,0,0,.26,1.5H4.14A3.59,3.59,0,0,1,5,11Z"/></svg>