<?xml version="1.0" ?><svg enable-background="new 0 0 800 800" id="Layer_1" version="1.1" viewBox="0 0 800 800" xml:space="preserve" xmlns="http://www.w3.org/2000/svg" xmlns:xlink="http://www.w3.org/1999/xlink"><g><path d="M677.4,638.2c-0.1,0-0.1,0-0.2,0H146c-13.8,0-26-8.9-30.3-22c-4.3-13.1,0.4-27.5,11.6-35.6c35.9-26,57.3-68,57.3-112.4   v-86.2c0-125.2,101.8-227,227-227s227,101.8,227,227v86.2c0,43.5,20.6,84.8,55.3,110.9c9.2,5.6,15.3,15.7,15.3,27.2   C709.3,624,695,638.2,677.4,638.2z M218.1,574.6h387.1C585.7,543,575,506.2,575,468.2v-86.2c0-90.1-73.3-163.3-163.4-163.3   S248.3,292,248.3,382.1v86.2C248.3,506.2,237.5,543,218.1,574.6z"/></g><g><path d="M411.6,218.7c-51.2,0-92.8-41.7-92.8-92.9c0-51.2,41.6-92.8,92.8-92.8c51.2,0,92.8,41.6,92.8,92.8   C504.5,177.1,462.8,218.7,411.6,218.7z M411.6,96.8c-16.1,0-29.1,13.1-29.1,29.1c0,16.1,13.1,29.2,29.1,29.2   c16.1,0,29.1-13.1,29.1-29.2C440.8,109.8,427.7,96.8,411.6,96.8z"/></g><g><path d="M411.6,760.2c-51.2,0-92.8-41.6-92.8-92.8v-61c0-17.6,14.3-31.8,31.8-31.8c17.6,0,31.8,14.3,31.8,31.8v61   c0,16.1,13.1,29.1,29.1,29.1c16.1,0,29.1-13.1,29.1-29.1v-61c0-17.6,14.3-31.8,31.8-31.8c17.6,0,31.8,14.3,31.8,31.8v61   C504.5,718.6,462.8,760.2,411.6,760.2z"/></g></svg>