<?xml version="1.0" encoding="utf-8"?>
<!-- Generator: Adobe Illustrator 24.1.0, SVG Export Plug-In . SVG Version: 6.00 Build 0)  -->
<svg version="1.1" id="Layer_1" xmlns="http://www.w3.org/2000/svg" xmlns:xlink="http://www.w3.org/1999/xlink" x="0px" y="0px"
	 viewBox="0 0 512 512" style="enable-background:new 0 0 512 512;" xml:space="preserve">
<g>
	<path d="M41.9,400.4c0,20.7,17,38.9,37.7,38.9H436c20.7,0,34.1-18.2,34.1-38.9v-218H41.9V400.4z"/>
	<path d="M470.1,129.9c0-20.7-13.4-33.2-34.1-33.2c0,0-207.1,0-223.5,0c-6.3,0-14.3-13.3-24.8-25.4c-9.5-11.1-19.7-17.4-27.4-17.4
		c-10,0-80.7,0-80.7,0c-20.7,0-37.7,11.9-37.7,32.5V161h428.3V129.9z"/>
</g>
</svg>
