<?xml version="1.0" encoding="utf-8"?>
<!-- Generator: Adobe Illustrator 24.2.1, SVG Export Plug-In . SVG Version: 6.00 Build 0)  -->
<svg version="1.1" xmlns="http://www.w3.org/2000/svg" xmlns:xlink="http://www.w3.org/1999/xlink" x="0px" y="0px"
	 viewBox="0 0 400 165" style="enable-background:new 0 0 400 165;" xml:space="preserve">
<style type="text/css">
	.st0{display:none;}
	.st1{display:inline;}
	.st2{fill:#F4F4F4;}
	.st3{fill:#A0A0A0;}
	.st4{fill:none;stroke:#A0A0A0;stroke-miterlimit:10;}
	.st5{fill-rule:evenodd;clip-rule:evenodd;fill:#F4F4F4;}
	.st6{fill-rule:evenodd;clip-rule:evenodd;fill:#A0A0A0;}
	.st7{display:inline;fill-rule:evenodd;clip-rule:evenodd;fill:none;stroke:#A0A0A0;stroke-width:4;stroke-miterlimit:10;}
	.st8{display:inline;fill-rule:evenodd;clip-rule:evenodd;fill:#DBDBDB;}
	.st9{display:inline;fill-rule:evenodd;clip-rule:evenodd;fill:#A0A0A0;}
	.st10{display:inline;fill-rule:evenodd;clip-rule:evenodd;fill:#FFFFFF;}
	.st11{fill-rule:evenodd;clip-rule:evenodd;fill:#FFFFFF;}
	.st12{fill-rule:evenodd;clip-rule:evenodd;fill:none;stroke:#A0A0A0;stroke-width:4;stroke-miterlimit:10;}
	.st13{fill-rule:evenodd;clip-rule:evenodd;fill:#DBDBDB;}
	.st14{fill:none;stroke:#BFBFBF;stroke-miterlimit:10;}
	.st15{fill:none;stroke:#BFBFBF;stroke-miterlimit:10;stroke-dasharray:6.0508,6.0508;}
	.st16{display:inline;fill:#C1C1C1;}
	.st17{font-family:'Arial-Black';}
	.st18{font-size:21.0115px;}
	.st19{display:inline;fill:#DBDBDB;}
	.st20{fill:#E2E2E2;}
	.st21{fill:#BABABA;}
	.st22{display:inline;fill-rule:evenodd;clip-rule:evenodd;fill:none;stroke:#C9C9C9;stroke-width:2;stroke-miterlimit:10;}
	.st23{display:inline;fill-rule:evenodd;clip-rule:evenodd;fill:#C4C4C4;}
	.st24{display:inline;fill:#A0A0A0;}
	.st25{font-family:'LiHeiPro';}
	.st26{font-size:30.8431px;}
</style>
<g id="圖層_1" class="st0">
	<g class="st1">
		<path class="st2" d="M16.5,138c-3.3,0-6-2.7-6-6V17c0-3.3,2.7-6,6-6h221.9c3.3,0,6,2.7,6,6V132c0,3.3-2.7,6-6,6H16.5z"/>
		<path class="st3" d="M238.5,11.5c3.1,0,5.5,2.5,5.5,5.5V132c0,3.1-2.5,5.5-5.5,5.5H16.5c-3.1,0-5.5-2.5-5.5-5.5V17
			c0-3.1,2.5-5.5,5.5-5.5H238.5 M238.5,10.5H16.5c-3.6,0-6.5,2.9-6.5,6.5V132c0,3.6,2.9,6.5,6.5,6.5h221.9c3.6,0,6.5-2.9,6.5-6.5V17
			C245,13.4,242.1,10.5,238.5,10.5L238.5,10.5z"/>
	</g>
	<g class="st1">
		<line class="st4" x1="11.5" y1="12.5" x2="243.5" y2="135.5"/>
		<line class="st5" x1="11.5" y1="12.5" x2="243.5" y2="135.5"/>
	</g>
	<g class="st1">
		<line class="st4" x1="11.5" y1="136.5" x2="242.3" y2="12.4"/>
		<line class="st5" x1="11.5" y1="136.5" x2="242.3" y2="12.4"/>
	</g>
	<g class="st1">
		<circle class="st6" cx="108" cy="149.5" r="4.5"/>
		<circle class="st6" cx="127.5" cy="149.5" r="4.5"/>
		<circle class="st6" cx="146.5" cy="149.5" r="4.5"/>
	</g>
	<polyline class="st7" points="27.5,83.2 19.2,74.8 27.5,66.5 	"/>
	<polyline class="st7" points="227.9,65.8 236.2,74.1 227.9,82.5 	"/>
	<g class="st1">
		<path class="st2" d="M262.5,137.5c-3.3,0-6-2.7-6-6V16.5c0-3.3,2.7-6,6-6h120.2c3.3,0,6,2.7,6,6v114.9c0,3.3-2.7,6-6,6H262.5z"/>
		<path class="st3" d="M382.7,11c3.1,0,5.5,2.5,5.5,5.5v114.9c0,3.1-2.5,5.5-5.5,5.5H262.5c-3.1,0-5.5-2.5-5.5-5.5V16.5
			c0-3.1,2.5-5.5,5.5-5.5H382.7 M382.7,10H262.5c-3.6,0-6.5,2.9-6.5,6.5v114.9c0,3.6,2.9,6.5,6.5,6.5h120.2c3.6,0,6.5-2.9,6.5-6.5
			V16.5C389.3,12.9,386.3,10,382.7,10L382.7,10z"/>
	</g>
	<rect x="266" y="20" class="st8" width="112" height="11"/>
	<rect x="266" y="38" class="st8" width="83" height="11"/>
	<rect x="266" y="71" class="st8" width="112" height="6"/>
	<rect x="266" y="85" class="st8" width="112" height="6"/>
	<rect x="266" y="99" class="st8" width="112" height="6"/>
	<rect x="266" y="113" class="st8" width="93" height="6"/>
</g>
<g id="圖層_2" class="st0">
	<g class="st1">
		<path class="st2" d="M16.6,137.9c-3.3,0-6-2.7-6-6V16.9c0-3.3,2.7-6,6-6h366.9c3.3,0,6,2.7,6,6v114.9c0,3.3-2.7,6-6,6H16.6z"/>
		<path class="st3" d="M383.5,11.4c3.1,0,5.5,2.5,5.5,5.5v114.9c0,3.1-2.5,5.5-5.5,5.5H16.6c-3.1,0-5.5-2.5-5.5-5.5V16.9
			c0-3.1,2.5-5.5,5.5-5.5H383.5 M383.5,10.4H16.6c-3.6,0-6.5,2.9-6.5,6.5v114.9c0,3.6,2.9,6.5,6.5,6.5h366.9c3.6,0,6.5-2.9,6.5-6.5
			V16.9C390,13.3,387.1,10.4,383.5,10.4L383.5,10.4z"/>
	</g>
	<g class="st1">
		<line class="st4" x1="11.5" y1="13.4" x2="388.5" y2="136.4"/>
		<line class="st5" x1="11.5" y1="13.4" x2="388.5" y2="136.4"/>
	</g>
	<g class="st1">
		<line class="st4" x1="11.5" y1="137.4" x2="387.4" y2="13.2"/>
		<line class="st5" x1="11.5" y1="137.4" x2="387.4" y2="13.2"/>
	</g>
	<g class="st1">
		<circle class="st6" cx="180" cy="150.4" r="4.5"/>
		<circle class="st6" cx="199.5" cy="150.4" r="4.5"/>
		<circle class="st6" cx="218.5" cy="150.4" r="4.5"/>
	</g>
	<polyline class="st7" points="27.5,84 19.2,75.7 27.5,67.4 	"/>
	<polyline class="st7" points="372.9,66.6 381.2,75 372.9,83.3 	"/>
</g>
<g id="圖層_2_拷貝_3" class="st0">
	<g class="st1">
		<path class="st2" d="M16.6,137.9c-3.3,0-6-2.7-6-6V16.9c0-3.3,2.7-6,6-6h180.9c3.3,0,6,2.7,6,6v114.9c0,3.3-2.7,6-6,6H16.6z"/>
		<path class="st3" d="M197.5,11.4c3.1,0,5.5,2.5,5.5,5.5v114.9c0,3.1-2.5,5.5-5.5,5.5H16.6c-3.1,0-5.5-2.5-5.5-5.5V16.9
			c0-3.1,2.5-5.5,5.5-5.5H197.5 M197.5,10.4H16.6c-3.6,0-6.5,2.9-6.5,6.5v114.9c0,3.6,2.9,6.5,6.5,6.5h180.9c3.6,0,6.5-2.9,6.5-6.5
			V16.9C204,13.3,201.1,10.4,197.5,10.4L197.5,10.4z"/>
	</g>
	<g class="st1">
		<circle class="st6" cx="86" cy="150.4" r="4.5"/>
		<circle class="st6" cx="105.5" cy="150.4" r="4.5"/>
		<circle class="st6" cx="124.5" cy="150.4" r="4.5"/>
	</g>
	<circle class="st9" cx="106.5" cy="73.5" r="24.5"/>
	<polyline class="st10" points="100.7,64.9 116.3,73.5 100.7,82.1 	"/>
	<rect x="218.6" y="12.2" class="st8" width="161.3" height="17.8"/>
	<rect x="218.6" y="67" class="st8" width="142.4" height="10.6"/>
	<rect x="218.6" y="87.4" class="st8" width="113.4" height="10.6"/>
	<rect x="218.6" y="46.4" class="st8" width="142.4" height="10.6"/>
</g>
<g id="圖層_2_拷貝_4" class="st0">
	<g class="st1">
		<g>
			<path class="st2" d="M202.6,137.9c-3.3,0-6-2.7-6-6V16.9c0-3.3,2.7-6,6-6h180.9c3.3,0,6,2.7,6,6v114.9c0,3.3-2.7,6-6,6H202.6z"/>
			<path class="st3" d="M383.5,11.4c3.1,0,5.5,2.5,5.5,5.5v114.9c0,3.1-2.5,5.5-5.5,5.5H202.6c-3.1,0-5.5-2.5-5.5-5.5V16.9
				c0-3.1,2.5-5.5,5.5-5.5H383.5 M383.5,10.4H202.6c-3.6,0-6.5,2.9-6.5,6.5v114.9c0,3.6,2.9,6.5,6.5,6.5h180.9
				c3.6,0,6.5-2.9,6.5-6.5V16.9C390,13.3,387.1,10.4,383.5,10.4L383.5,10.4z"/>
		</g>
		<g>
			<circle class="st6" cx="272" cy="150.4" r="4.5"/>
			<circle class="st6" cx="291.5" cy="150.4" r="4.5"/>
			<circle class="st6" cx="310.5" cy="150.4" r="4.5"/>
		</g>
		<circle class="st6" cx="292.5" cy="73.5" r="24.5"/>
		<polyline class="st11" points="286.7,64.9 302.3,73.5 286.7,82.1 		"/>
	</g>
	<rect x="12.6" y="12.2" class="st8" width="161.3" height="17.8"/>
	<rect x="12.6" y="67" class="st8" width="142.4" height="10.6"/>
	<rect x="12.6" y="87.4" class="st8" width="113.4" height="10.6"/>
	<rect x="12.6" y="46.4" class="st8" width="142.4" height="10.6"/>
</g>
<g id="圖層_2_拷貝_2">
	<g>
		<circle class="st6" cx="180" cy="112.4" r="4.5"/>
		<circle class="st6" cx="199.5" cy="112.4" r="4.5"/>
		<circle class="st6" cx="218.5" cy="112.4" r="4.5"/>
	</g>
	<polyline class="st12" points="27.5,84 19.2,75.7 27.5,67.4 	"/>
	<polyline class="st12" points="372.9,66.6 381.2,75 372.9,83.3 	"/>
	<g>
		<g>
			<path class="st2" d="M44.2,96.9c-3.3,0-6-2.7-6-6V62.6c0-3.3,2.7-6,6-6h87.9c3.3,0,6,2.7,6,6v28.3c0,3.3-2.7,6-6,6H44.2z"/>
			<path class="st3" d="M132.1,57c3.1,0,5.5,2.5,5.5,5.5v28.3c0,3.1-2.5,5.5-5.5,5.5H44.2c-3.1,0-5.5-2.5-5.5-5.5V62.6
				c0-3.1,2.5-5.5,5.5-5.5H132.1 M132.1,56H44.2c-3.6,0-6.5,2.9-6.5,6.5v28.3c0,3.6,2.9,6.5,6.5,6.5h87.9c3.6,0,6.5-2.9,6.5-6.5
				V62.6C138.6,58.9,135.7,56,132.1,56L132.1,56z"/>
		</g>
		<g>
			<path class="st2" d="M155.9,96.9c-3.3,0-6-2.7-6-6V62.6c0-3.3,2.7-6,6-6h87.9c3.3,0,6,2.7,6,6v28.3c0,3.3-2.7,6-6,6H155.9z"/>
			<path class="st3" d="M243.8,57c3.1,0,5.5,2.5,5.5,5.5v28.3c0,3.1-2.5,5.5-5.5,5.5h-87.9c-3.1,0-5.5-2.5-5.5-5.5V62.6
				c0-3.1,2.5-5.5,5.5-5.5H243.8 M243.8,56h-87.9c-3.6,0-6.5,2.9-6.5,6.5v28.3c0,3.6,2.9,6.5,6.5,6.5h87.9c3.6,0,6.5-2.9,6.5-6.5
				V62.6C250.4,58.9,247.5,56,243.8,56L243.8,56z"/>
		</g>
		<g>
			<path class="st2" d="M267.9,96.9c-3.3,0-6-2.7-6-6V62.6c0-3.3,2.7-6,6-6h87.9c3.3,0,6,2.7,6,6v28.3c0,3.3-2.7,6-6,6H267.9z"/>
			<path class="st3" d="M355.8,57c3.1,0,5.5,2.5,5.5,5.5v28.3c0,3.1-2.5,5.5-5.5,5.5h-87.9c-3.1,0-5.5-2.5-5.5-5.5V62.6
				c0-3.1,2.5-5.5,5.5-5.5H355.8 M355.8,56h-87.9c-3.6,0-6.5,2.9-6.5,6.5v28.3c0,3.6,2.9,6.5,6.5,6.5h87.9c3.6,0,6.5-2.9,6.5-6.5
				V62.6C362.4,58.9,359.5,56,355.8,56L355.8,56z"/>
		</g>
	</g>
	<rect x="44.1" y="70.4" class="st13" width="86.9" height="10.6"/>
	<rect x="156.8" y="70.4" class="st13" width="86.9" height="10.6"/>
	<rect x="268.8" y="70.4" class="st13" width="86.9" height="10.6"/>
</g>
<g id="圖層_3" class="st0">
	<g class="st1">
		<path class="st2" d="M17.5,93.5c-3.3,0-6-2.7-6-6V64.5c0-3.3,2.7-6,6-6h366.9c3.3,0,6,2.7,6,6v22.9c0,3.3-2.7,6-6,6H17.5z"/>
		<path class="st3" d="M384.5,59c3.1,0,5.5,2.5,5.5,5.5v22.9c0,3.1-2.5,5.5-5.5,5.5H17.5c-3.1,0-5.5-2.5-5.5-5.5V64.5
			c0-3.1,2.5-5.5,5.5-5.5H384.5 M384.5,58H17.5c-3.6,0-6.5,2.9-6.5,6.5v22.9c0,3.6,2.9,6.5,6.5,6.5h366.9c3.6,0,6.5-2.9,6.5-6.5
			V64.5C391,60.9,388.1,58,384.5,58L384.5,58z"/>
	</g>
	<polyline class="st7" points="370.3,72.9 376.2,67 382.1,72.9 	"/>
	<rect x="23" y="71" class="st8" width="302" height="11"/>
	<polyline class="st7" points="382.1,80.6 376.2,86.5 370.3,80.6 	"/>
</g>
<g id="圖層_4" class="st0">
	<g class="st1">
		<path class="st2" d="M16.5,153.5c-3.3,0-6-2.7-6-6V17.5c0-3.3,2.7-6,6-6h366.9c3.3,0,6,2.7,6,6v129.9c0,3.3-2.7,6-6,6H16.5z"/>
		<path class="st3" d="M383.5,12c3.1,0,5.5,2.5,5.5,5.5v129.9c0,3.1-2.5,5.5-5.5,5.5H16.5c-3.1,0-5.5-2.5-5.5-5.5V17.5
			c0-3.1,2.5-5.5,5.5-5.5H383.5 M383.5,11H16.5c-3.6,0-6.5,2.9-6.5,6.5v129.9c0,3.6,2.9,6.5,6.5,6.5h366.9c3.6,0,6.5-2.9,6.5-6.5
			V17.5C390,13.9,387.1,11,383.5,11L383.5,11z"/>
	</g>
	<g class="st1">
		<line class="st2" x1="18.6" y1="71" x2="381.6" y2="71"/>
		<g>
			<line class="st14" x1="18.6" y1="71" x2="21.6" y2="71"/>
			<line class="st15" x1="27.6" y1="71" x2="375.5" y2="71"/>
			<line class="st14" x1="378.6" y1="71" x2="381.6" y2="71"/>
		</g>
	</g>
	<g class="st1">
		<line class="st2" x1="18.6" y1="105.4" x2="381.6" y2="105.4"/>
		<g>
			<line class="st14" x1="18.6" y1="105.4" x2="21.6" y2="105.4"/>
			<line class="st15" x1="27.6" y1="105.4" x2="375.5" y2="105.4"/>
			<line class="st14" x1="378.6" y1="105.4" x2="381.6" y2="105.4"/>
		</g>
	</g>
	<g class="st1">
		<rect x="25.6" y="47.8" class="st13" width="11.4" height="11"/>
		<rect x="25.6" y="82.1" class="st13" width="11.4" height="11"/>
		<rect x="25.6" y="115.9" class="st13" width="11.4" height="11"/>
	</g>
	<g class="st1">
		<line class="st2" x1="18.6" y1="139.2" x2="381.6" y2="139.2"/>
		<g>
			<line class="st14" x1="18.6" y1="139.2" x2="21.6" y2="139.2"/>
			<line class="st15" x1="27.6" y1="139.2" x2="375.5" y2="139.2"/>
			<line class="st14" x1="378.6" y1="139.2" x2="381.6" y2="139.2"/>
		</g>
	</g>
	<g class="st1">
		<rect x="47.4" y="47.8" class="st13" width="329.6" height="11"/>
		<rect x="47.4" y="82.1" class="st13" width="176.6" height="11"/>
		<rect x="47.4" y="115.9" class="st13" width="269.6" height="11"/>
	</g>
	<text transform="matrix(0.9475 0 0 1 23.1826 36.5576)" class="st16 st17 st18">News</text>
</g>
<g id="圖層_4_拷貝" class="st0">
	<g class="st1">
		<path class="st2" d="M16.5,153.5c-3.3,0-6-2.7-6-6V37.5c0-3.3,2.7-6,6-6h366.9c3.3,0,6,2.7,6,6v109.9c0,3.3-2.7,6-6,6H16.5z"/>
		<path class="st3" d="M383.5,32c3.1,0,5.5,2.5,5.5,5.5v109.9c0,3.1-2.5,5.5-5.5,5.5H16.5c-3.1,0-5.5-2.5-5.5-5.5V37.5
			c0-3.1,2.5-5.5,5.5-5.5H383.5 M383.5,31H16.5c-3.6,0-6.5,2.9-6.5,6.5v109.9c0,3.6,2.9,6.5,6.5,6.5h366.9c3.6,0,6.5-2.9,6.5-6.5
			V37.5C390,33.9,387.1,31,383.5,31L383.5,31z"/>
	</g>
	<g class="st1">
		<line class="st2" x1="18.6" y1="71" x2="381.6" y2="71"/>
		<g>
			<line class="st14" x1="18.6" y1="71" x2="21.6" y2="71"/>
			<line class="st15" x1="27.6" y1="71" x2="375.5" y2="71"/>
			<line class="st14" x1="378.6" y1="71" x2="381.6" y2="71"/>
		</g>
	</g>
	<g class="st1">
		<line class="st2" x1="18.6" y1="105.4" x2="381.6" y2="105.4"/>
		<g>
			<line class="st14" x1="18.6" y1="105.4" x2="21.6" y2="105.4"/>
			<line class="st15" x1="27.6" y1="105.4" x2="375.5" y2="105.4"/>
			<line class="st14" x1="378.6" y1="105.4" x2="381.6" y2="105.4"/>
		</g>
	</g>
	<g class="st1">
		<rect x="25.6" y="47.8" class="st13" width="11.4" height="11"/>
		<rect x="25.6" y="82.1" class="st13" width="11.4" height="11"/>
		<rect x="25.6" y="115.9" class="st13" width="11.4" height="11"/>
	</g>
	<g class="st1">
		<line class="st2" x1="18.6" y1="139.2" x2="381.6" y2="139.2"/>
		<g>
			<line class="st14" x1="18.6" y1="139.2" x2="21.6" y2="139.2"/>
			<line class="st15" x1="27.6" y1="139.2" x2="375.5" y2="139.2"/>
			<line class="st14" x1="378.6" y1="139.2" x2="381.6" y2="139.2"/>
		</g>
	</g>
	<g class="st1">
		<rect x="47.4" y="47.8" class="st13" width="329.6" height="11"/>
		<rect x="47.4" y="82.1" class="st13" width="176.6" height="11"/>
		<rect x="47.4" y="115.9" class="st13" width="269.6" height="11"/>
	</g>
	<path class="st19" d="M73.5,24.9H16.8c-3.6,0-6.5-2.9-6.5-6.5v-4.5c0-3.6,2.9-6.5,6.5-6.5h56.7c3.6,0,6.5,2.9,6.5,6.5v4.5
		C80.1,22,77.1,24.9,73.5,24.9z"/>
	<path class="st19" d="M149.4,24.9H92.7c-3.6,0-6.5-2.9-6.5-6.5v-4.5c0-3.6,2.9-6.5,6.5-6.5h56.7c3.6,0,6.5,2.9,6.5,6.5v4.5
		C156,22,153.1,24.9,149.4,24.9z"/>
	<path class="st19" d="M225.4,24.9h-56.7c-3.6,0-6.5-2.9-6.5-6.5v-4.5c0-3.6,2.9-6.5,6.5-6.5h56.7c3.6,0,6.5,2.9,6.5,6.5v4.5
		C232,22,229.1,24.9,225.4,24.9z"/>
</g>
<g id="圖層_4_拷貝_2" class="st0">
	<g class="st1">
		<path class="st20" d="M188.5,54H16.5c-3.6,0-6.5-2.9-6.5-6.5V27.5c0-3.6,2.9-6.5,6.5-6.5h171.9c3.6,0,6.5,2.9,6.5,6.5v19.9
			C195,51.1,192.1,54,188.5,54z"/>
	</g>
	<g class="st1">
		<path class="st20" d="M382.5,54H210.5c-3.6,0-6.5-2.9-6.5-6.5V27.5c0-3.6,2.9-6.5,6.5-6.5h171.9c3.6,0,6.5,2.9,6.5,6.5v19.9
			C389,51.1,386.1,54,382.5,54z"/>
	</g>
	<g class="st1">
		<path class="st20" d="M188.5,101H16.5c-3.6,0-6.5-2.9-6.5-6.5V74.5c0-3.6,2.9-6.5,6.5-6.5h171.9c3.6,0,6.5,2.9,6.5,6.5v19.9
			C195,98.1,192.1,101,188.5,101z"/>
	</g>
	<g class="st1">
		<path class="st20" d="M382.5,101H210.5c-3.6,0-6.5-2.9-6.5-6.5V74.5c0-3.6,2.9-6.5,6.5-6.5h171.9c3.6,0,6.5,2.9,6.5,6.5v19.9
			C389,98.1,386.1,101,382.5,101z"/>
	</g>
	<g class="st1">
		<path class="st20" d="M188.5,148H16.5c-3.6,0-6.5-2.9-6.5-6.5v-19.9c0-3.6,2.9-6.5,6.5-6.5h171.9c3.6,0,6.5,2.9,6.5,6.5v19.9
			C195,145.1,192.1,148,188.5,148z"/>
	</g>
	<g class="st1">
		<path class="st20" d="M382.5,148H210.5c-3.6,0-6.5-2.9-6.5-6.5v-19.9c0-3.6,2.9-6.5,6.5-6.5h171.9c3.6,0,6.5,2.9,6.5,6.5v19.9
			C389,145.1,386.1,148,382.5,148z"/>
	</g>
	<g class="st1">
		<path class="st21" d="M46.6,50H18.4C16,50,14,48,14,45.6v-17c0-2.4,2-4.4,4.4-4.4h28.3c2.4,0,4.4,2,4.4,4.4v17
			C51,48,49,50,46.6,50z"/>
	</g>
	<g class="st1">
		<path class="st21" d="M46.7,97.5H18.4c-2.4,0-4.4-2-4.4-4.4v-17c0-2.4,2-4.4,4.4-4.4h28.3c2.4,0,4.4,2,4.4,4.4v17
			C51,95.5,49.1,97.5,46.7,97.5z"/>
	</g>
	<g class="st1">
		<path class="st21" d="M46.7,144.5H18.4c-2.4,0-4.4-2-4.4-4.4v-17c0-2.4,2-4.4,4.4-4.4h28.3c2.4,0,4.4,2,4.4,4.4v17
			C51,142.5,49.1,144.5,46.7,144.5z"/>
	</g>
	<g class="st1">
		<path class="st21" d="M240.6,50.2h-28.3c-2.4,0-4.4-2-4.4-4.4v-17c0-2.4,2-4.4,4.4-4.4h28.3c2.4,0,4.4,2,4.4,4.4v17
			C245,48.3,243.1,50.2,240.6,50.2z"/>
	</g>
	<g class="st1">
		<path class="st21" d="M240.7,97.7h-28.3c-2.4,0-4.4-2-4.4-4.4v-17c0-2.4,2-4.4,4.4-4.4h28.3c2.4,0,4.4,2,4.4,4.4v17
			C245,95.7,243.1,97.7,240.7,97.7z"/>
	</g>
	<g class="st1">
		<path class="st21" d="M240.7,144.7h-28.3c-2.4,0-4.4-2-4.4-4.4v-17c0-2.4,2-4.4,4.4-4.4h28.3c2.4,0,4.4,2,4.4,4.4v17
			C245,142.7,243.1,144.7,240.7,144.7z"/>
	</g>
	<polyline class="st22" points="179.8,32.3 186,38.6 179.8,44.9 	"/>
	<polyline class="st22" points="179.8,78.4 186,84.7 179.8,91 	"/>
	<polyline class="st22" points="179.8,125.4 186,131.7 179.8,138 	"/>
	<polyline class="st22" points="374.6,32.9 380.9,39.2 374.6,45.4 	"/>
	<polyline class="st22" points="374.6,79 380.9,85.3 374.6,91.5 	"/>
	<polyline class="st22" points="374.6,126 380.9,132.3 374.6,138.5 	"/>
</g>
<g id="圖層_4_拷貝_4" class="st0">
	<g class="st1">
		<path class="st20" d="M188.5,54H16.5c-3.6,0-6.5-2.9-6.5-6.5V27.5c0-3.6,2.9-6.5,6.5-6.5h171.9c3.6,0,6.5,2.9,6.5,6.5v19.9
			C195,51.1,192.1,54,188.5,54z"/>
	</g>
	<g class="st1">
		<path class="st20" d="M382.5,54H210.5c-3.6,0-6.5-2.9-6.5-6.5V27.5c0-3.6,2.9-6.5,6.5-6.5h171.9c3.6,0,6.5,2.9,6.5,6.5v19.9
			C389,51.1,386.1,54,382.5,54z"/>
	</g>
	<g class="st1">
		<path class="st20" d="M188.5,101H16.5c-3.6,0-6.5-2.9-6.5-6.5V74.5c0-3.6,2.9-6.5,6.5-6.5h171.9c3.6,0,6.5,2.9,6.5,6.5v19.9
			C195,98.1,192.1,101,188.5,101z"/>
	</g>
	<g class="st1">
		<path class="st20" d="M382.5,101H210.5c-3.6,0-6.5-2.9-6.5-6.5V74.5c0-3.6,2.9-6.5,6.5-6.5h171.9c3.6,0,6.5,2.9,6.5,6.5v19.9
			C389,98.1,386.1,101,382.5,101z"/>
	</g>
	<g class="st1">
		<path class="st20" d="M188.5,148H16.5c-3.6,0-6.5-2.9-6.5-6.5v-19.9c0-3.6,2.9-6.5,6.5-6.5h171.9c3.6,0,6.5,2.9,6.5,6.5v19.9
			C195,145.1,192.1,148,188.5,148z"/>
	</g>
	<g class="st1">
		<path class="st20" d="M382.5,148H210.5c-3.6,0-6.5-2.9-6.5-6.5v-19.9c0-3.6,2.9-6.5,6.5-6.5h171.9c3.6,0,6.5,2.9,6.5,6.5v19.9
			C389,145.1,386.1,148,382.5,148z"/>
	</g>
	<polyline class="st22" points="179.8,32.3 186,38.6 179.8,44.9 	"/>
	<polyline class="st22" points="179.8,78.4 186,84.7 179.8,91 	"/>
	<polyline class="st22" points="179.8,125.4 186,131.7 179.8,138 	"/>
	<polyline class="st22" points="374.6,32.9 380.9,39.2 374.6,45.4 	"/>
	<polyline class="st22" points="374.6,79 380.9,85.3 374.6,91.5 	"/>
	<polyline class="st22" points="374.6,126 380.9,132.3 374.6,138.5 	"/>
	<rect x="19.1" y="31" class="st23" width="95.9" height="11"/>
	<rect x="19.3" y="79.2" class="st23" width="115.7" height="11"/>
	<rect x="213.3" y="31.2" class="st23" width="82.7" height="11"/>
	<rect x="213.9" y="79.2" class="st23" width="131.1" height="11"/>
	<rect x="213.1" y="126" class="st23" width="80.9" height="11"/>
	<rect x="18.8" y="126" class="st23" width="80.9" height="11"/>
</g>
<g id="圖層_4_拷貝_3" class="st0">
	<g class="st1">
		<circle class="st21" cx="75" cy="76.3" r="38"/>
		<circle class="st21" cx="200" cy="76" r="38"/>
		<circle class="st21" cx="325" cy="76.3" r="38"/>
	</g>
	<rect x="52" y="121.2" class="st8" width="45.3" height="11"/>
	<rect x="177.6" y="121.2" class="st8" width="45.3" height="11"/>
	<rect x="303.6" y="121.2" class="st8" width="45.3" height="11"/>
</g>
<g id="圖層_2_拷貝" class="st0">
	<g class="st1">
		<path class="st2" d="M16.6,137.9c-3.3,0-6-2.7-6-6V16.9c0-3.3,2.7-6,6-6h366.9c3.3,0,6,2.7,6,6v114.9c0,3.3-2.7,6-6,6H16.6z"/>
		<path class="st3" d="M383.5,11.4c3.1,0,5.5,2.5,5.5,5.5v114.9c0,3.1-2.5,5.5-5.5,5.5H16.6c-3.1,0-5.5-2.5-5.5-5.5V16.9
			c0-3.1,2.5-5.5,5.5-5.5H383.5 M383.5,10.4H16.6c-3.6,0-6.5,2.9-6.5,6.5v114.9c0,3.6,2.9,6.5,6.5,6.5h366.9c3.6,0,6.5-2.9,6.5-6.5
			V16.9C390,13.3,387.1,10.4,383.5,10.4L383.5,10.4z"/>
	</g>
	<text transform="matrix(1 0 0 1 122.8926 80.1475)" class="st24 st25 st26">自由編輯區</text>
</g>
</svg>
