<?xml version="1.0" encoding="utf-8"?>
<!-- Generator: Adobe Illustrator 24.2.1, SVG Export Plug-In . SVG Version: 6.00 Build 0)  -->
<svg version="1.1" xmlns="http://www.w3.org/2000/svg" xmlns:xlink="http://www.w3.org/1999/xlink" x="0px" y="0px"
	 viewBox="0 0 400 165" style="enable-background:new 0 0 400 165;" xml:space="preserve">
<style type="text/css">
	.st0{fill:#F4F4F4;}
	.st1{fill:#A0A0A0;}
	.st2{fill:none;stroke:#A0A0A0;stroke-miterlimit:10;}
	.st3{fill-rule:evenodd;clip-rule:evenodd;fill:#F4F4F4;}
	.st4{fill-rule:evenodd;clip-rule:evenodd;fill:#A0A0A0;}
	.st5{fill-rule:evenodd;clip-rule:evenodd;fill:none;stroke:#A0A0A0;stroke-width:4;stroke-miterlimit:10;}
	.st6{fill-rule:evenodd;clip-rule:evenodd;fill:#DBDBDB;}
	.st7{display:none;}
	.st8{display:inline;}
	.st9{display:inline;fill-rule:evenodd;clip-rule:evenodd;fill:none;stroke:#A0A0A0;stroke-width:4;stroke-miterlimit:10;}
</style>
<g id="圖層_1">
	<g>
		<path class="st0" d="M16.5,138c-3.3,0-6-2.7-6-6V17c0-3.3,2.7-6,6-6h221.9c3.3,0,6,2.7,6,6V132c0,3.3-2.7,6-6,6H16.5z"/>
		<path class="st1" d="M238.5,11.5c3.1,0,5.5,2.5,5.5,5.5V132c0,3.1-2.5,5.5-5.5,5.5H16.5c-3.1,0-5.5-2.5-5.5-5.5V17
			c0-3.1,2.5-5.5,5.5-5.5H238.5 M238.5,10.5H16.5c-3.6,0-6.5,2.9-6.5,6.5V132c0,3.6,2.9,6.5,6.5,6.5h221.9c3.6,0,6.5-2.9,6.5-6.5V17
			C245,13.4,242.1,10.5,238.5,10.5L238.5,10.5z"/>
	</g>
	<g>
		<line class="st2" x1="11.5" y1="12.5" x2="243.5" y2="135.5"/>
		<line class="st3" x1="11.5" y1="12.5" x2="243.5" y2="135.5"/>
	</g>
	<g>
		<line class="st2" x1="11.5" y1="136.5" x2="242.3" y2="12.4"/>
		<line class="st3" x1="11.5" y1="136.5" x2="242.3" y2="12.4"/>
	</g>
	<g>
		<circle class="st4" cx="108" cy="149.5" r="4.5"/>
		<circle class="st4" cx="127.5" cy="149.5" r="4.5"/>
		<circle class="st4" cx="146.5" cy="149.5" r="4.5"/>
	</g>
	<polyline class="st5" points="27.5,83.2 19.2,74.8 27.5,66.5 	"/>
	<polyline class="st5" points="227.9,65.8 236.2,74.1 227.9,82.5 	"/>
	<g>
		<path class="st0" d="M262.5,137.5c-3.3,0-6-2.7-6-6V16.5c0-3.3,2.7-6,6-6h120.2c3.3,0,6,2.7,6,6v114.9c0,3.3-2.7,6-6,6H262.5z"/>
		<path class="st1" d="M382.7,11c3.1,0,5.5,2.5,5.5,5.5v114.9c0,3.1-2.5,5.5-5.5,5.5H262.5c-3.1,0-5.5-2.5-5.5-5.5V16.5
			c0-3.1,2.5-5.5,5.5-5.5H382.7 M382.7,10H262.5c-3.6,0-6.5,2.9-6.5,6.5v114.9c0,3.6,2.9,6.5,6.5,6.5h120.2c3.6,0,6.5-2.9,6.5-6.5
			V16.5C389.3,12.9,386.3,10,382.7,10L382.7,10z"/>
	</g>
	<rect x="266" y="20" class="st6" width="112" height="11"/>
	<rect x="266" y="38" class="st6" width="83" height="11"/>
	<rect x="266" y="71" class="st6" width="112" height="6"/>
	<rect x="266" y="85" class="st6" width="112" height="6"/>
	<rect x="266" y="99" class="st6" width="112" height="6"/>
	<rect x="266" y="113" class="st6" width="93" height="6"/>
</g>
<g id="圖層_2" class="st7">
	<g class="st8">
		<path class="st0" d="M16.6,138.9c-3.3,0-6-2.7-6-6V17.9c0-3.3,2.7-6,6-6h366.9c3.3,0,6,2.7,6,6v114.9c0,3.3-2.7,6-6,6H16.6z"/>
		<path class="st1" d="M383.5,12.4c3.1,0,5.5,2.5,5.5,5.5v114.9c0,3.1-2.5,5.5-5.5,5.5H16.6c-3.1,0-5.5-2.5-5.5-5.5V17.9
			c0-3.1,2.5-5.5,5.5-5.5H383.5 M383.5,11.4H16.6c-3.6,0-6.5,2.9-6.5,6.5v114.9c0,3.6,2.9,6.5,6.5,6.5h366.9c3.6,0,6.5-2.9,6.5-6.5
			V17.9C390,14.3,387.1,11.4,383.5,11.4L383.5,11.4z"/>
	</g>
	<g class="st8">
		<line class="st2" x1="11.5" y1="13.4" x2="388.5" y2="136.4"/>
		<line class="st3" x1="11.5" y1="13.4" x2="388.5" y2="136.4"/>
	</g>
	<g class="st8">
		<line class="st2" x1="11.5" y1="137.4" x2="387.4" y2="13.2"/>
		<line class="st3" x1="11.5" y1="137.4" x2="387.4" y2="13.2"/>
	</g>
	<g class="st8">
		<circle class="st4" cx="180" cy="150.4" r="4.5"/>
		<circle class="st4" cx="199.5" cy="150.4" r="4.5"/>
		<circle class="st4" cx="218.5" cy="150.4" r="4.5"/>
	</g>
	<polyline class="st9" points="27.5,84 19.2,75.7 27.5,67.4 	"/>
	<polyline class="st9" points="372.9,66.6 381.2,75 372.9,83.3 	"/>
</g>
</svg>
