<?xml version="1.0" encoding="utf-8"?>
<!-- Generator: Adobe Illustrator 24.2.1, SVG Export Plug-In . SVG Version: 6.00 Build 0)  -->
<svg version="1.1" xmlns="http://www.w3.org/2000/svg" xmlns:xlink="http://www.w3.org/1999/xlink" x="0px" y="0px"
	 viewBox="0 0 400 165" style="enable-background:new 0 0 400 165;" xml:space="preserve">
<style type="text/css">
	.st0{display:none;}
	.st1{display:inline;}
	.st2{fill:#F4F4F4;}
	.st3{fill:#A0A0A0;}
	.st4{fill:none;stroke:#A0A0A0;stroke-miterlimit:10;}
	.st5{fill-rule:evenodd;clip-rule:evenodd;fill:#F4F4F4;}
	.st6{fill-rule:evenodd;clip-rule:evenodd;fill:#A0A0A0;}
	.st7{display:inline;fill-rule:evenodd;clip-rule:evenodd;fill:none;stroke:#A0A0A0;stroke-width:4;stroke-miterlimit:10;}
	.st8{display:inline;fill-rule:evenodd;clip-rule:evenodd;fill:#DBDBDB;}
	.st9{fill-rule:evenodd;clip-rule:evenodd;fill:none;stroke:#A0A0A0;stroke-width:4;stroke-miterlimit:10;}
	.st10{fill-rule:evenodd;clip-rule:evenodd;fill:#DBDBDB;}
	.st11{fill:none;stroke:#BFBFBF;stroke-miterlimit:10;}
	.st12{fill:none;stroke:#BFBFBF;stroke-miterlimit:10;stroke-dasharray:6.0508,6.0508;}
	.st13{display:inline;fill:#C1C1C1;}
	.st14{font-family:'Arial-Black';}
	.st15{font-size:21.0115px;}
</style>
<g id="圖層_1" class="st0">
	<g class="st1">
		<path class="st2" d="M16.5,138c-3.3,0-6-2.7-6-6V17c0-3.3,2.7-6,6-6h221.9c3.3,0,6,2.7,6,6V132c0,3.3-2.7,6-6,6H16.5z"/>
		<path class="st3" d="M238.5,11.5c3.1,0,5.5,2.5,5.5,5.5V132c0,3.1-2.5,5.5-5.5,5.5H16.5c-3.1,0-5.5-2.5-5.5-5.5V17
			c0-3.1,2.5-5.5,5.5-5.5H238.5 M238.5,10.5H16.5c-3.6,0-6.5,2.9-6.5,6.5V132c0,3.6,2.9,6.5,6.5,6.5h221.9c3.6,0,6.5-2.9,6.5-6.5V17
			C245,13.4,242.1,10.5,238.5,10.5L238.5,10.5z"/>
	</g>
	<g class="st1">
		<line class="st4" x1="11.5" y1="12.5" x2="243.5" y2="135.5"/>
		<line class="st5" x1="11.5" y1="12.5" x2="243.5" y2="135.5"/>
	</g>
	<g class="st1">
		<line class="st4" x1="11.5" y1="136.5" x2="242.3" y2="12.4"/>
		<line class="st5" x1="11.5" y1="136.5" x2="242.3" y2="12.4"/>
	</g>
	<g class="st1">
		<circle class="st6" cx="108" cy="149.5" r="4.5"/>
		<circle class="st6" cx="127.5" cy="149.5" r="4.5"/>
		<circle class="st6" cx="146.5" cy="149.5" r="4.5"/>
	</g>
	<polyline class="st7" points="27.5,83.2 19.2,74.8 27.5,66.5 	"/>
	<polyline class="st7" points="227.9,65.8 236.2,74.1 227.9,82.5 	"/>
	<g class="st1">
		<path class="st2" d="M262.5,137.5c-3.3,0-6-2.7-6-6V16.5c0-3.3,2.7-6,6-6h120.2c3.3,0,6,2.7,6,6v114.9c0,3.3-2.7,6-6,6H262.5z"/>
		<path class="st3" d="M382.7,11c3.1,0,5.5,2.5,5.5,5.5v114.9c0,3.1-2.5,5.5-5.5,5.5H262.5c-3.1,0-5.5-2.5-5.5-5.5V16.5
			c0-3.1,2.5-5.5,5.5-5.5H382.7 M382.7,10H262.5c-3.6,0-6.5,2.9-6.5,6.5v114.9c0,3.6,2.9,6.5,6.5,6.5h120.2c3.6,0,6.5-2.9,6.5-6.5
			V16.5C389.3,12.9,386.3,10,382.7,10L382.7,10z"/>
	</g>
	<rect x="266" y="20" class="st8" width="112" height="11"/>
	<rect x="266" y="38" class="st8" width="83" height="11"/>
	<rect x="266" y="71" class="st8" width="112" height="6"/>
	<rect x="266" y="85" class="st8" width="112" height="6"/>
	<rect x="266" y="99" class="st8" width="112" height="6"/>
	<rect x="266" y="113" class="st8" width="93" height="6"/>
</g>
<g id="圖層_2" class="st0">
	<g class="st1">
		<path class="st2" d="M16.6,137.9c-3.3,0-6-2.7-6-6V16.9c0-3.3,2.7-6,6-6h366.9c3.3,0,6,2.7,6,6v114.9c0,3.3-2.7,6-6,6H16.6z"/>
		<path class="st3" d="M383.5,11.4c3.1,0,5.5,2.5,5.5,5.5v114.9c0,3.1-2.5,5.5-5.5,5.5H16.6c-3.1,0-5.5-2.5-5.5-5.5V16.9
			c0-3.1,2.5-5.5,5.5-5.5H383.5 M383.5,10.4H16.6c-3.6,0-6.5,2.9-6.5,6.5v114.9c0,3.6,2.9,6.5,6.5,6.5h366.9c3.6,0,6.5-2.9,6.5-6.5
			V16.9C390,13.3,387.1,10.4,383.5,10.4L383.5,10.4z"/>
	</g>
	<g class="st1">
		<line class="st4" x1="11.5" y1="13.4" x2="388.5" y2="136.4"/>
		<line class="st5" x1="11.5" y1="13.4" x2="388.5" y2="136.4"/>
	</g>
	<g class="st1">
		<line class="st4" x1="11.5" y1="137.4" x2="387.4" y2="13.2"/>
		<line class="st5" x1="11.5" y1="137.4" x2="387.4" y2="13.2"/>
	</g>
	<g class="st1">
		<circle class="st6" cx="180" cy="150.4" r="4.5"/>
		<circle class="st6" cx="199.5" cy="150.4" r="4.5"/>
		<circle class="st6" cx="218.5" cy="150.4" r="4.5"/>
	</g>
	<polyline class="st7" points="27.5,84 19.2,75.7 27.5,67.4 	"/>
	<polyline class="st7" points="372.9,66.6 381.2,75 372.9,83.3 	"/>
</g>
<g id="圖層_3">
	<g>
		<path class="st2" d="M17.5,93.5c-3.3,0-6-2.7-6-6V64.5c0-3.3,2.7-6,6-6h366.9c3.3,0,6,2.7,6,6v22.9c0,3.3-2.7,6-6,6H17.5z"/>
		<path class="st3" d="M384.5,59c3.1,0,5.5,2.5,5.5,5.5v22.9c0,3.1-2.5,5.5-5.5,5.5H17.5c-3.1,0-5.5-2.5-5.5-5.5V64.5
			c0-3.1,2.5-5.5,5.5-5.5H384.5 M384.5,58H17.5c-3.6,0-6.5,2.9-6.5,6.5v22.9c0,3.6,2.9,6.5,6.5,6.5h366.9c3.6,0,6.5-2.9,6.5-6.5
			V64.5C391,60.9,388.1,58,384.5,58L384.5,58z"/>
	</g>
	<polyline class="st9" points="370.3,72.9 376.2,67 382.1,72.9 	"/>
	<rect x="23" y="71" class="st10" width="302" height="11"/>
	<polyline class="st9" points="382.1,80.6 376.2,86.5 370.3,80.6 	"/>
</g>
<g id="圖層_4" class="st0">
	<g class="st1">
		<path class="st2" d="M16.5,153.5c-3.3,0-6-2.7-6-6V17.5c0-3.3,2.7-6,6-6h366.9c3.3,0,6,2.7,6,6v129.9c0,3.3-2.7,6-6,6H16.5z"/>
		<path class="st3" d="M383.5,12c3.1,0,5.5,2.5,5.5,5.5v129.9c0,3.1-2.5,5.5-5.5,5.5H16.5c-3.1,0-5.5-2.5-5.5-5.5V17.5
			c0-3.1,2.5-5.5,5.5-5.5H383.5 M383.5,11H16.5c-3.6,0-6.5,2.9-6.5,6.5v129.9c0,3.6,2.9,6.5,6.5,6.5h366.9c3.6,0,6.5-2.9,6.5-6.5
			V17.5C390,13.9,387.1,11,383.5,11L383.5,11z"/>
	</g>
	<g class="st1">
		<line class="st2" x1="18.6" y1="71" x2="381.6" y2="71"/>
		<g>
			<line class="st11" x1="18.6" y1="71" x2="21.6" y2="71"/>
			<line class="st12" x1="27.6" y1="71" x2="375.5" y2="71"/>
			<line class="st11" x1="378.6" y1="71" x2="381.6" y2="71"/>
		</g>
	</g>
	<g class="st1">
		<line class="st2" x1="18.6" y1="105.4" x2="381.6" y2="105.4"/>
		<g>
			<line class="st11" x1="18.6" y1="105.4" x2="21.6" y2="105.4"/>
			<line class="st12" x1="27.6" y1="105.4" x2="375.5" y2="105.4"/>
			<line class="st11" x1="378.6" y1="105.4" x2="381.6" y2="105.4"/>
		</g>
	</g>
	<g class="st1">
		<rect x="25.6" y="47.8" class="st10" width="11.4" height="11"/>
		<rect x="25.6" y="82.1" class="st10" width="11.4" height="11"/>
		<rect x="25.6" y="115.9" class="st10" width="11.4" height="11"/>
	</g>
	<g class="st1">
		<line class="st2" x1="18.6" y1="139.2" x2="381.6" y2="139.2"/>
		<g>
			<line class="st11" x1="18.6" y1="139.2" x2="21.6" y2="139.2"/>
			<line class="st12" x1="27.6" y1="139.2" x2="375.5" y2="139.2"/>
			<line class="st11" x1="378.6" y1="139.2" x2="381.6" y2="139.2"/>
		</g>
	</g>
	<g class="st1">
		<rect x="47.4" y="47.8" class="st10" width="329.6" height="11"/>
		<rect x="47.4" y="82.1" class="st10" width="176.6" height="11"/>
		<rect x="47.4" y="115.9" class="st10" width="269.6" height="11"/>
	</g>
	<text transform="matrix(0.9475 0 0 1 23.1826 36.5576)" class="st13 st14 st15">News</text>
</g>
</svg>
